<svg width="29" height="28" viewBox="0 0 29 28" fill="none" xmlns="http://www.w3.org/2000/svg">
<g id="affiliate-marketing 1">
<g id="Group">
<g id="Group_2">
<g id="Group_3">
<path id="Vector" d="M14.8858 24.006C9.37014 24.006 4.88281 19.5187 4.88281 14.003C4.88281 8.48733 9.37014 4 14.8858 4C20.4015 4 24.8888 8.48733 24.8888 14.003C24.8888 19.5187 20.4015 24.006 14.8858 24.006ZM14.8858 5.09375C9.97323 5.09375 5.97656 9.09042 5.97656 14.003C5.97656 18.9156 9.97323 22.9122 14.8858 22.9122C19.7984 22.9122 23.7951 18.9156 23.7951 14.003C23.7951 9.09042 19.7984 5.09375 14.8858 5.09375Z" fill="#D1D3D4"/>
</g>
<g id="Group_4">
<g id="Group_5">
<g id="Group_6">
<path id="Vector_2" d="M14.8813 6.84863C16.1534 6.84863 17.1846 5.81744 17.1846 4.54541C17.1846 3.27337 16.1534 2.24219 14.8813 2.24219C13.6093 2.24219 12.5781 3.27337 12.5781 4.54541C12.5781 5.81744 13.6093 6.84863 14.8813 6.84863Z" fill="#FFA91A"/>
</g>
</g>
<g id="Group_7">
<g id="Group_8">
<path id="Vector_3" d="M14.8813 25.7627C16.1534 25.7627 17.1846 24.7315 17.1846 23.4595C17.1846 22.1874 16.1534 21.1562 14.8813 21.1562C13.6093 21.1562 12.5781 22.1874 12.5781 23.4595C12.5781 24.7315 13.6093 25.7627 14.8813 25.7627Z" fill="#FFA91A"/>
</g>
</g>
</g>
<g id="Group_9">
<g id="Group_10">
<g id="Group_11">
<path id="Vector_4" d="M24.3423 16.3018C25.6143 16.3018 26.6455 15.2706 26.6455 13.9985C26.6455 12.7265 25.6143 11.6953 24.3423 11.6953C23.0702 11.6953 22.0391 12.7265 22.0391 13.9985C22.0391 15.2706 23.0702 16.3018 24.3423 16.3018Z" fill="#FFA91A"/>
</g>
</g>
<g id="Group_12">
<g id="Group_13">
<path id="Vector_5" d="M5.42822 16.3096C6.70025 16.3096 7.73144 15.2784 7.73144 14.0063C7.73144 12.7343 6.70025 11.7031 5.42822 11.7031C4.15619 11.7031 3.125 12.7343 3.125 14.0063C3.125 15.2784 4.15619 16.3096 5.42822 16.3096Z" fill="#FFA91A"/>
</g>
</g>
</g>
</g>
<g id="Group_14">
<g id="Group_15">
<g id="Group_16">
<path id="Vector_6" d="M14.8819 18.8693C17.5695 18.8693 19.7483 16.6906 19.7483 14.003C19.7483 11.3154 17.5695 9.13672 14.8819 9.13672C12.1943 9.13672 10.0156 11.3154 10.0156 14.003C10.0156 16.6906 12.1943 18.8693 14.8819 18.8693Z" fill="#FFA91A"/>
</g>
</g>
<g id="Group_17">
<g id="Group_18">
<path id="Vector_7" d="M11.6956 16.9702C11.6322 16.9702 11.572 16.9428 11.5305 16.8947C10.8348 16.0908 10.4531 15.0637 10.4531 14.0028C10.4531 11.5616 12.4394 9.57422 14.8817 9.57422C15.3509 9.57422 15.8125 9.6475 16.2544 9.79187C16.3692 9.82906 16.4316 9.95266 16.3944 10.0675C16.3572 10.1792 16.2314 10.2436 16.1177 10.2075C15.7206 10.0773 15.3039 10.0117 14.8817 10.0117C13.8175 10.0117 12.8156 10.4273 12.0609 11.182C11.3062 11.9366 10.8906 12.9386 10.8906 14.0028C10.8906 14.9587 11.2352 15.8841 11.8608 16.6092C11.8608 16.6092 11.8619 16.6092 11.8619 16.6103C11.8991 16.6541 11.9177 16.7098 11.9133 16.7677C11.91 16.8257 11.8827 16.8794 11.8389 16.9175C11.7984 16.9516 11.7481 16.9702 11.6956 16.9702ZM16.9828 10.5738C16.9445 10.5738 16.9073 10.564 16.8734 10.5454C16.7695 10.4841 16.7334 10.3507 16.7936 10.2457C16.8527 10.145 16.9916 10.1079 17.0933 10.1669C17.1972 10.226 17.2333 10.3606 17.1731 10.4655C17.1337 10.5323 17.0616 10.5738 16.9828 10.5738Z" fill="#FFC91D"/>
</g>
</g>
<g id="Group_19">
<path id="Vector_8" d="M17.7325 10.0586C18.3125 10.8598 18.6546 11.8446 18.6546 12.9092C18.6546 15.5969 16.4758 17.7755 13.7881 17.7755C12.7235 17.7755 11.7387 17.4335 10.9375 16.8535C11.8216 18.0748 13.259 18.8693 14.8819 18.8693C17.5696 18.8693 19.7483 16.6905 19.7483 14.003C19.7482 12.3801 18.9537 10.9428 17.7325 10.0586Z" fill="#F79219"/>
</g>
<g id="Group_20">
<path id="Vector_9" d="M18.04 10.3008C18.7651 11.1506 19.2028 12.2529 19.2028 13.4576C19.2028 16.1452 17.024 18.3239 14.3364 18.3239C13.1317 18.3239 12.0294 17.8862 11.1797 17.1611C12.0723 18.2073 13.4002 18.8708 14.8832 18.8708C17.5709 18.8708 19.7497 16.692 19.7497 14.0044C19.7497 12.5214 19.0863 11.1934 18.04 10.3008Z" fill="#EF7816"/>
</g>
<g id="Group_21">
<g id="Group_22">
<g id="Group_23">
<g id="Group_24">
<g id="Group_25">
<g id="Group_26">
<path id="Vector_10" d="M13.2654 15.2189L11.6605 15.2196C11.5077 15.2197 11.3838 15.0959 11.3837 14.9431L11.3828 13.0628C11.3827 12.91 11.5065 12.786 11.6593 12.7859L13.2642 12.7852L13.2654 15.2189Z" fill="#478CF7"/>
</g>
</g>
</g>
</g>
</g>
<g id="Group_27">
<path id="Vector_11" d="M16.7109 14.7863L17.044 14.7865C17.1968 14.7866 17.3207 14.6627 17.3208 14.51L17.3213 13.4918C17.3214 13.339 17.1975 13.2151 17.0448 13.215L16.7117 13.2148L16.7109 14.7863Z" fill="#478CF7"/>
</g>
<g id="Group_28">
<g id="Group_29">
<path id="Vector_12" d="M11.3854 14.8718H11.308C11.0346 14.872 10.8129 14.6505 10.8128 14.3771L10.8125 13.6319C10.8124 13.3585 11.0339 13.1368 11.3072 13.1367H11.3846L11.3854 14.8718Z" fill="white"/>
</g>
</g>
<g id="Group_30">
<g id="Group_31">
<path id="Vector_13" d="M18.7688 14.174H18.128C18.0314 14.174 17.9531 14.0957 17.9531 13.9991C17.9531 13.9025 18.0314 13.8242 18.128 13.8242H18.7688C18.8654 13.8242 18.9437 13.9025 18.9437 13.9991C18.9437 14.0957 18.8654 14.174 18.7688 14.174Z" fill="white"/>
</g>
<g id="Group_32">
<path id="Vector_14" d="M18.2985 12.6813L17.8454 13.1344C17.7771 13.2027 17.6663 13.2027 17.5981 13.1344C17.5298 13.0662 17.5298 12.9554 17.5981 12.8871L18.0512 12.434C18.1195 12.3657 18.2303 12.3657 18.2985 12.434C18.3669 12.5023 18.3669 12.613 18.2985 12.6813Z" fill="white"/>
</g>
<g id="Group_33">
<path id="Vector_15" d="M18.0512 15.568L17.5981 15.1149C17.5298 15.0466 17.5298 14.9358 17.5981 14.8676C17.6663 14.7993 17.7771 14.7993 17.8454 14.8676L18.2985 15.3207C18.3668 15.389 18.3668 15.4998 18.2985 15.568C18.2303 15.6364 18.1195 15.6364 18.0512 15.568Z" fill="white"/>
</g>
</g>
<g id="Group_34">
<path id="Vector_16" d="M11.8906 12.7852H12.1539V15.2202H11.8906V12.7852Z" fill="#2266D3"/>
</g>
<g id="Group_35">
<path id="Vector_17" d="M13.3788 15.8632H13.5051C13.5995 15.8632 13.6662 15.7707 13.6363 15.6812L13.4823 15.2188H13.1641L13.3788 15.8632Z" fill="#2266D3"/>
</g>
<g id="Group_36">
<path id="Vector_18" d="M13.6858 16.4645L13.2708 15.2188H12.4219L12.9157 16.7012C12.9628 16.8426 13.0951 16.938 13.2442 16.938H13.7573C13.8738 16.938 13.9683 16.8436 13.9683 16.727C13.9683 16.6105 13.8739 16.516 13.7573 16.516C13.7249 16.516 13.696 16.4953 13.6858 16.4645Z" fill="#377DE2"/>
</g>
<g id="Group_37">
<path id="Vector_19" d="M11.3847 13.7106H11.1365C11.0741 13.7106 11.0234 13.6599 11.0234 13.5975C11.0234 13.535 11.0741 13.4844 11.1365 13.4844H11.3847V13.7106Z" fill="#D1D3D4"/>
</g>
<g id="Group_38">
<path id="Vector_20" d="M11.3847 14.1129H11.1365C11.0741 14.1129 11.0234 14.0623 11.0234 13.9998C11.0234 13.9374 11.0741 13.8867 11.1365 13.8867H11.3847V14.1129Z" fill="#D1D3D4"/>
</g>
<g id="Group_39">
<path id="Vector_21" d="M11.3847 14.5192H11.1365C11.0741 14.5192 11.0234 14.4685 11.0234 14.4061C11.0234 14.3436 11.0741 14.293 11.1365 14.293H11.3847V14.5192Z" fill="#D1D3D4"/>
</g>
<g id="Group_40">
<path id="Vector_22" d="M13.2656 12.7862V15.2199C14.1699 15.2199 15.0604 15.4432 15.8577 15.8698L16.7112 16.3266V11.6797L15.8577 12.1364C15.0604 12.5629 14.1699 12.7862 13.2656 12.7862Z" fill="white"/>
</g>
<g id="Group_41">
<path id="Vector_23" d="M16.4694 16.6026C16.6035 16.6026 16.7122 16.4939 16.7122 16.3598V11.6452C16.7122 11.5111 16.6035 11.4023 16.4694 11.4023C16.3353 11.4023 16.2266 11.5111 16.2266 11.6452V16.3598C16.2266 16.4939 16.3353 16.6026 16.4694 16.6026Z" fill="#E6E7E8"/>
</g>
</g>
</g>
<g id="Group_42">
<g id="Group_43">
<g id="Group_44">
<g id="Group_45">
<g id="Group_46">
<path id="Vector_24" d="M15.1032 4.27756H15.0105V3.36745H15.1032C15.3541 3.36745 15.5582 3.57155 15.5582 3.82245C15.5582 3.90448 15.625 3.97131 15.7071 3.97131C15.7891 3.97131 15.856 3.90459 15.856 3.82245C15.856 3.40737 15.5183 3.06973 15.1032 3.06973H15.0105V2.97698C15.0105 2.89495 14.9438 2.82812 14.8616 2.82812C14.7796 2.82812 14.7128 2.89484 14.7128 2.97698V3.06973H14.62C14.2049 3.06973 13.8673 3.40737 13.8673 3.82245C13.8673 4.23753 14.2049 4.57517 14.62 4.57517H14.7128V5.72689H14.62C14.3691 5.72689 14.1649 5.5228 14.1649 5.27189C14.1649 5.18986 14.0982 5.12303 14.016 5.12303C13.934 5.12303 13.8672 5.18975 13.8672 5.27189C13.8672 5.68697 14.2048 6.02461 14.6199 6.02461H14.7127V6.11736C14.7127 6.19939 14.7794 6.26622 14.8615 6.26622C14.9435 6.26622 15.0104 6.1995 15.0104 6.11736V6.02461H15.1031C15.5182 6.02461 15.8558 5.68697 15.8558 5.27189V5.03028C15.856 4.6152 15.5182 4.27756 15.1032 4.27756ZM14.6201 3.36745H14.7129V4.27756H14.6201C14.3692 4.27756 14.165 4.07347 14.165 3.82256C14.165 3.57166 14.3692 3.36745 14.6201 3.36745ZM15.5582 5.03028V5.27189C15.5582 5.5228 15.3541 5.72689 15.1032 5.72689H15.0105V4.57517H15.1032C15.3541 4.57517 15.5582 4.77937 15.5582 5.03028Z" fill="white"/>
</g>
</g>
</g>
</g>
</g>
<g id="Group_47">
<g id="Group_48">
<g id="Group_49">
<g id="Group_50">
<g id="Group_51">
<path id="Vector_25" d="M5.67355 13.7346H5.5808V12.8245H5.67355C5.92445 12.8245 6.12855 13.0286 6.12855 13.2795C6.12855 13.3615 6.19527 13.4283 6.27741 13.4283C6.35944 13.4283 6.42627 13.3616 6.42627 13.2795C6.42627 12.8644 6.08862 12.5268 5.67355 12.5268H5.5808V12.434C5.5808 12.352 5.51408 12.2852 5.43194 12.2852C5.34991 12.2852 5.28308 12.3519 5.28308 12.434V12.5268H5.19033C4.77525 12.5268 4.43761 12.8644 4.43761 13.2795C4.43761 13.6946 4.77525 14.0322 5.19033 14.0322H5.28308V15.1839H5.19033C4.93942 15.1839 4.73522 14.9798 4.73522 14.7289C4.73522 14.6469 4.6685 14.5801 4.58636 14.5801C4.50433 14.5801 4.4375 14.6468 4.4375 14.7289C4.4375 15.144 4.77514 15.4816 5.19022 15.4816H5.28297V15.5744C5.28297 15.6564 5.34969 15.7233 5.43183 15.7233C5.51386 15.7233 5.58069 15.6565 5.58069 15.5744V15.4816H5.67344C6.08852 15.4816 6.42616 15.144 6.42616 14.7289V14.4873C6.42627 14.0722 6.08862 13.7346 5.67355 13.7346ZM5.19044 12.8245H5.28319V13.7346H5.19044C4.93953 13.7346 4.73533 13.5305 4.73533 13.2796C4.73533 13.0287 4.93953 12.8245 5.19044 12.8245ZM6.12855 14.4873V14.7289C6.12855 14.9798 5.92445 15.1839 5.67355 15.1839H5.5808V14.0322H5.67355C5.92445 14.0322 6.12855 14.2364 6.12855 14.4873Z" fill="white"/>
</g>
</g>
</g>
</g>
</g>
<g id="Group_52">
<g id="Group_53">
<g id="Group_54">
<g id="Group_55">
<g id="Group_56">
<path id="Vector_26" d="M24.5798 13.7346H24.487V12.8245H24.5798C24.8307 12.8245 25.0348 13.0286 25.0348 13.2795C25.0348 13.3615 25.1015 13.4283 25.1837 13.4283C25.2657 13.4283 25.3325 13.3616 25.3325 13.2795C25.3325 12.8644 24.9949 12.5268 24.5798 12.5268H24.487V12.434C24.487 12.352 24.4203 12.2852 24.3382 12.2852C24.2562 12.2852 24.1893 12.3519 24.1893 12.434V12.5268H24.0966C23.6815 12.5268 23.3439 12.8644 23.3439 13.2795C23.3439 13.6946 23.6815 14.0322 24.0966 14.0322H24.1893V15.1839H24.0966C23.8457 15.1839 23.6415 14.9798 23.6415 14.7289C23.6415 14.6469 23.5747 14.5801 23.4926 14.5801C23.4106 14.5801 23.3438 14.6468 23.3438 14.7289C23.3438 15.144 23.6814 15.4816 24.0965 15.4816H24.1892V15.5744C24.1892 15.6564 24.2559 15.7233 24.3381 15.7233C24.4201 15.7233 24.4869 15.6565 24.4869 15.5744V15.4816H24.5797C24.9948 15.4816 25.3324 15.144 25.3324 14.7289V14.4873C25.3325 14.0722 24.9949 13.7346 24.5798 13.7346ZM24.0968 12.8245H24.1895V13.7346H24.0968C23.8459 13.7346 23.6417 13.5305 23.6417 13.2796C23.6417 13.0287 23.8458 12.8245 24.0968 12.8245ZM25.0349 14.4873V14.7289C25.0349 14.9798 24.8308 15.1839 24.5799 15.1839H24.4872V14.0322H24.5799C24.8308 14.0322 25.0349 14.2364 25.0349 14.4873Z" fill="white"/>
</g>
</g>
</g>
</g>
</g>
<g id="Group_57">
<g id="Group_58">
<g id="Group_59">
<g id="Group_60">
<g id="Group_61">
<path id="Vector_27" d="M15.1032 23.1877H15.0105V22.2776H15.1032C15.3541 22.2776 15.5582 22.4817 15.5582 22.7326C15.5582 22.8146 15.625 22.8815 15.7071 22.8815C15.7891 22.8815 15.856 22.8148 15.856 22.7326C15.856 22.3175 15.5183 21.9799 15.1032 21.9799H15.0105V21.8871C15.0105 21.8051 14.9438 21.7383 14.8616 21.7383C14.7796 21.7383 14.7128 21.805 14.7128 21.8871V21.9799H14.62C14.2049 21.9799 13.8673 22.3175 13.8673 22.7326C13.8673 23.1477 14.2049 23.4853 14.62 23.4853H14.7128V24.637H14.62C14.3691 24.637 14.1649 24.433 14.1649 24.182C14.1649 24.1 14.0982 24.0332 14.016 24.0332C13.934 24.0332 13.8672 24.0999 13.8672 24.182C13.8672 24.5971 14.2048 24.9348 14.6199 24.9348H14.7127V25.0275C14.7127 25.1095 14.7794 25.1764 14.8615 25.1764C14.9435 25.1764 15.0104 25.1097 15.0104 25.0275V24.9348H15.1031C15.5182 24.9348 15.8558 24.5971 15.8558 24.182V23.9404C15.856 23.5254 15.5182 23.1877 15.1032 23.1877ZM14.6201 22.2776H14.7129V23.1877H14.6201C14.3692 23.1877 14.165 22.9836 14.165 22.7327C14.165 22.4817 14.3692 22.2776 14.6201 22.2776ZM15.5582 23.9403V24.1819C15.5582 24.4328 15.3541 24.6369 15.1032 24.6369H15.0105V23.4852H15.1032C15.3541 23.4853 15.5582 23.6894 15.5582 23.9403Z" fill="white"/>
</g>
</g>
</g>
</g>
</g>
<g id="Group_62">
<g id="Group_63">
<g id="Group_64">
<path id="Vector_28" d="M8.7771 9.55011C10.0096 9.23339 10.7521 7.97746 10.4353 6.74492C10.1186 5.51238 8.86269 4.76996 7.63015 5.08668C6.39761 5.4034 5.65519 6.65933 5.97191 7.89187C6.28863 9.12441 7.54456 9.86683 8.7771 9.55011Z" fill="#76A34F"/>
</g>
</g>
<g id="Group_65">
<g id="Group_66">
<g id="Group_67">
<g id="Group_68">
<g id="Group_69">
<path id="Vector_29" d="M9.87086 8.90025C9.73961 9.03916 9.59108 9.16187 9.42877 9.26447C9.07264 9.49022 8.65012 9.62103 8.19709 9.62103C7.53778 9.62103 6.94344 9.34409 6.52344 8.90014C6.63894 8.49961 7.00797 8.20703 7.44569 8.20703H8.9485C9.38633 8.20703 9.75536 8.49972 9.87086 8.90025Z" fill="#8C3F0A"/>
</g>
</g>
</g>
<g id="Group_70">
<g id="Group_71">
<g id="Group_72">
<path id="Vector_30" d="M7.92188 7.69141V8.37402C7.92188 8.42684 7.93708 8.47858 7.96552 8.52298C8.07402 8.69219 8.32131 8.69219 8.42981 8.52298C8.45836 8.47858 8.47345 8.42684 8.47345 8.37402V7.69141H7.92188Z" fill="#F2AD97"/>
</g>
</g>
<g id="Group_73">
<g id="Group_74">
<g id="Group_75">
<path id="Vector_31" d="M8.19744 7.83042C7.71739 7.83042 7.32812 7.44127 7.32812 6.96111V6.50994C7.32812 6.02989 7.71728 5.64062 8.19744 5.64062C8.67748 5.64062 9.06675 6.02978 9.06675 6.50994V6.96122C9.06675 7.44127 8.67759 7.83042 8.19744 7.83042Z" fill="#FCC4AE"/>
</g>
</g>
<g id="Group_76">
<g id="Group_77">
<path id="Vector_32" d="M7.32687 6.95919V6.6875C7.17222 6.6875 7.04688 6.81284 7.04688 6.9675C7.04688 7.12216 7.17222 7.2475 7.32687 7.2475C7.34317 7.2475 7.35903 7.24586 7.37456 7.24313C7.34383 7.1542 7.32687 7.05872 7.32687 6.95919Z" fill="#FCC4AE"/>
</g>
</g>
<g id="Group_78">
<g id="Group_79">
<path id="Vector_33" d="M9.06331 6.6875V6.95919C9.06331 7.05872 9.04636 7.1542 9.01562 7.24323C9.03116 7.24586 9.04702 7.24761 9.06331 7.24761C9.21797 7.24761 9.34331 7.12227 9.34331 6.96761C9.34331 6.81284 9.21797 6.6875 9.06331 6.6875Z" fill="#FCC4AE"/>
</g>
</g>
<g id="Group_80">
<g id="Group_81">
<path id="Vector_34" d="M7.88171 5.46644C7.88313 5.928 7.62501 6.34527 7.23202 6.5592C7.1489 6.60448 7.04685 6.5393 7.05516 6.44502C7.08338 6.12477 7.22579 5.83153 7.44946 5.62514C7.57032 5.51314 7.71491 5.42684 7.8781 5.375C7.8804 5.40519 7.88171 5.43559 7.88171 5.46644Z" fill="#414042"/>
</g>
</g>
<g id="Group_82">
<g id="Group_83">
<path id="Vector_35" d="M9.26389 6.48281C8.53523 6.85895 7.61911 6.42966 7.44531 5.62488C7.56552 5.51353 7.70923 5.42756 7.87122 5.37561C8.54869 5.15566 9.22375 5.67125 9.32667 6.36031C9.33411 6.41008 9.30863 6.45963 9.26389 6.48281Z" fill="#414042"/>
</g>
</g>
</g>
</g>
<g id="Group_84">
<g id="Group_85">
<g id="Group_86">
<g id="Group_87">
<path id="Vector_36" d="M8.81877 8.20599L8.29847 9.61758C8.265 9.619 8.23164 9.61998 8.19817 9.61998C8.1647 9.61998 8.13134 9.619 8.09787 9.61758L7.57812 8.20599L7.92134 8.05078V8.19975L8.19817 8.6308L8.475 8.19975V8.05078L8.81877 8.20599Z" fill="#939598"/>
</g>
</g>
<g id="Group_88">
<g id="Group_89">
<path id="Vector_37" d="M7.57812 8.20588L7.83713 8.9085C7.84763 8.93705 7.88427 8.94514 7.90581 8.92359L8.19828 8.63113L7.92156 8.19986V8.05078L7.57812 8.20588Z" fill="white"/>
</g>
</g>
<g id="Group_90">
<g id="Group_91">
<path id="Vector_38" d="M8.81569 8.20588L8.55647 8.9085C8.54597 8.93705 8.50933 8.94514 8.48778 8.92359L8.19531 8.63113L8.47203 8.19986V8.05078L8.81569 8.20588Z" fill="white"/>
</g>
</g>
<g id="Group_92">
<g id="Group_93">
<path id="Vector_39" d="M8.43195 8.86447L8.25936 9.03706C8.22677 9.06966 8.17394 9.06966 8.14134 9.03706L7.96875 8.86447L8.20041 8.63281L8.43195 8.86447Z" fill="#E6E7E8"/>
</g>
</g>
<g id="Group_94">
<g id="Group_95">
<path id="Vector_40" d="M8.37031 9.42959L8.30108 9.61816C8.26761 9.61958 8.23425 9.62056 8.20078 9.62056C8.16731 9.62056 8.13395 9.61958 8.10048 9.61816L8.03125 9.42959L8.08233 8.97656L8.1415 9.03573C8.17442 9.06822 8.22692 9.06822 8.25984 9.03573L8.31902 8.97656L8.37031 9.42959Z" fill="#D1D3D4"/>
</g>
</g>
</g>
<g id="Group_96">
<g id="Group_97">
<path id="Vector_41" d="M8.0995 9.61862C8.0446 9.61677 7.99067 9.61239 7.93719 9.60572L7.38003 9.0023C7.36428 8.98512 7.36527 8.95833 7.38342 8.94312L7.53042 8.8133C7.55766 8.78891 7.54333 8.74406 7.50746 8.74023L7.33421 8.72164C7.30752 8.7188 7.29024 8.69156 7.29931 8.66575L7.46589 8.20703H7.57953L8.0995 9.61862Z" fill="#7C3108"/>
</g>
</g>
<g id="Group_98">
<g id="Group_99">
<path id="Vector_42" d="M9.06206 8.72164L8.88881 8.74023C8.85305 8.74406 8.83872 8.78891 8.86595 8.8133L9.01295 8.94312C9.03111 8.95844 9.03209 8.98512 9.01634 9.0023L8.45919 9.60572C8.4057 9.61239 8.35178 9.61666 8.29688 9.61862L8.81717 8.20703H8.93081L9.09695 8.66575C9.10592 8.69156 9.08875 8.7188 9.06206 8.72164Z" fill="#7C3108"/>
</g>
</g>
</g>
</g>
</g>
</g>
<g id="Group_100">
<g id="Group_101">
<g id="Group_102">
<path id="Vector_43" d="M22.1599 9.5423C23.3925 9.22557 24.1349 7.96965 23.8182 6.73711C23.5014 5.50457 22.2455 4.76215 21.013 5.07887C19.7804 5.39559 19.038 6.65152 19.3547 7.88406C19.6714 9.1166 20.9274 9.85902 22.1599 9.5423Z" fill="#76A34F"/>
</g>
</g>
<g id="Group_103">
<g id="Group_104">
<g id="Group_105">
<g id="Group_106">
<g id="Group_107">
<path id="Vector_44" d="M23.2459 8.90025C23.1146 9.03916 22.9661 9.16187 22.8038 9.26447C22.4476 9.49022 22.0251 9.62103 21.5721 9.62103C20.9128 9.62103 20.3184 9.34409 19.8984 8.90014C20.0139 8.49961 20.383 8.20703 20.8207 8.20703H22.3235C22.7613 8.20703 23.1304 8.49972 23.2459 8.90025Z" fill="#8C3F0A"/>
</g>
</g>
</g>
<g id="Group_108">
<g id="Group_109">
<g id="Group_110">
<path id="Vector_45" d="M21.2969 7.69141V8.37402C21.2969 8.42684 21.3121 8.47858 21.3405 8.52298C21.449 8.69219 21.6963 8.69219 21.8048 8.52298C21.8334 8.47858 21.8485 8.42684 21.8485 8.37402V7.69141H21.2969Z" fill="#F2AD97"/>
</g>
</g>
<g id="Group_111">
<g id="Group_112">
<g id="Group_113">
<path id="Vector_46" d="M21.5724 7.83042C21.0924 7.83042 20.7031 7.44127 20.7031 6.96111V6.50994C20.7031 6.02989 21.0923 5.64062 21.5724 5.64062C22.0525 5.64062 22.4417 6.02978 22.4417 6.50994V6.96122C22.4417 7.44127 22.0526 7.83042 21.5724 7.83042Z" fill="#FCC4AE"/>
</g>
</g>
<g id="Group_114">
<g id="Group_115">
<path id="Vector_47" d="M20.7019 6.95919V6.6875C20.5472 6.6875 20.4219 6.81284 20.4219 6.9675C20.4219 7.12216 20.5472 7.2475 20.7019 7.2475C20.7182 7.2475 20.734 7.24586 20.7496 7.24313C20.7188 7.1542 20.7019 7.05872 20.7019 6.95919Z" fill="#FCC4AE"/>
</g>
</g>
<g id="Group_116">
<g id="Group_117">
<path id="Vector_48" d="M22.4383 6.6875V6.95919C22.4383 7.05872 22.4214 7.1542 22.3906 7.24323C22.4062 7.24586 22.422 7.24761 22.4383 7.24761C22.593 7.24761 22.7183 7.12227 22.7183 6.96761C22.7183 6.81284 22.593 6.6875 22.4383 6.6875Z" fill="#FCC4AE"/>
</g>
</g>
<g id="Group_118">
<g id="Group_119">
<path id="Vector_49" d="M21.2567 5.46644C21.2582 5.928 21 6.34527 20.607 6.5592C20.5239 6.60448 20.4219 6.5393 20.4302 6.44502C20.4584 6.12477 20.6008 5.83153 20.8245 5.62514C20.9453 5.51314 21.0899 5.42684 21.2531 5.375C21.2554 5.40519 21.2567 5.43559 21.2567 5.46644Z" fill="#414042"/>
</g>
</g>
<g id="Group_120">
<g id="Group_121">
<path id="Vector_50" d="M22.6389 6.48281C21.9102 6.85895 20.9941 6.42966 20.8203 5.62488C20.9405 5.51353 21.0842 5.42756 21.2462 5.37561C21.9237 5.15566 22.5988 5.67125 22.7017 6.36031C22.7091 6.41008 22.6836 6.45963 22.6389 6.48281Z" fill="#414042"/>
</g>
</g>
</g>
</g>
<g id="Group_122">
<g id="Group_123">
<g id="Group_124">
<g id="Group_125">
<path id="Vector_51" d="M22.1939 8.20599L21.6736 9.61758C21.6401 9.619 21.6067 9.61998 21.5733 9.61998C21.5398 9.61998 21.5065 9.619 21.473 9.61758L20.9531 8.20599L21.2963 8.05078V8.19975L21.5732 8.6308L21.85 8.19975V8.05078L22.1939 8.20599Z" fill="#939598"/>
</g>
</g>
<g id="Group_126">
<g id="Group_127">
<path id="Vector_52" d="M20.9531 8.20588L21.2121 8.9085C21.2226 8.93705 21.2593 8.94514 21.2808 8.92359L21.5733 8.63113L21.2966 8.19986V8.05078L20.9531 8.20588Z" fill="white"/>
</g>
</g>
<g id="Group_128">
<g id="Group_129">
<path id="Vector_53" d="M22.1907 8.20588L21.9315 8.9085C21.921 8.93705 21.8843 8.94514 21.8628 8.92359L21.5703 8.63113L21.847 8.19986V8.05078L22.1907 8.20588Z" fill="white"/>
</g>
</g>
<g id="Group_130">
<g id="Group_131">
<path id="Vector_54" d="M21.807 8.86447L21.6344 9.03706C21.6018 9.06966 21.5489 9.06966 21.5163 9.03706L21.3438 8.86447L21.5754 8.63281L21.807 8.86447Z" fill="#E6E7E8"/>
</g>
</g>
<g id="Group_132">
<g id="Group_133">
<path id="Vector_55" d="M21.7453 9.42959L21.6761 9.61816C21.6426 9.61958 21.6093 9.62056 21.5758 9.62056C21.5423 9.62056 21.509 9.61958 21.4755 9.61816L21.4062 9.42959L21.4573 8.97656L21.5165 9.03573C21.5494 9.06822 21.6019 9.06822 21.6348 9.03573L21.694 8.97656L21.7453 9.42959Z" fill="#D1D3D4"/>
</g>
</g>
</g>
<g id="Group_134">
<g id="Group_135">
<path id="Vector_56" d="M21.4745 9.61862C21.4196 9.61677 21.3657 9.61239 21.3122 9.60572L20.755 9.0023C20.7393 8.98512 20.7403 8.95833 20.7584 8.94312L20.9054 8.8133C20.9327 8.78891 20.9183 8.74406 20.8825 8.74023L20.7092 8.72164C20.6825 8.7188 20.6652 8.69156 20.6743 8.66575L20.8409 8.20703H20.9545L21.4745 9.61862Z" fill="#7C3108"/>
</g>
</g>
<g id="Group_136">
<g id="Group_137">
<path id="Vector_57" d="M22.4371 8.72164L22.2638 8.74023C22.228 8.74406 22.2137 8.78891 22.241 8.8133L22.388 8.94312C22.4061 8.95844 22.4071 8.98512 22.3913 9.0023L21.8342 9.60572C21.7807 9.61239 21.7268 9.61666 21.6719 9.61862L22.1922 8.20703H22.3058L22.472 8.66575C22.4809 8.69156 22.4638 8.7188 22.4371 8.72164Z" fill="#7C3108"/>
</g>
</g>
</g>
</g>
</g>
</g>
<g id="Group_138">
<g id="Group_139">
<g id="Group_140">
<path id="Vector_58" d="M8.78491 22.9212C10.0175 22.6045 10.7599 21.3486 10.4432 20.116C10.1264 18.8835 8.8705 18.1411 7.63796 18.4578C6.40542 18.7745 5.663 20.0304 5.97972 21.263C6.29645 22.4955 7.55237 23.2379 8.78491 22.9212Z" fill="#76A34F"/>
</g>
</g>
<g id="Group_141">
<g id="Group_142">
<g id="Group_143">
<g id="Group_144">
<g id="Group_145">
<path id="Vector_59" d="M9.87086 22.2674C9.73961 22.4063 9.59108 22.5291 9.42877 22.6317C9.07264 22.8574 8.65012 22.9882 8.19709 22.9882C7.53778 22.9882 6.94344 22.7113 6.52344 22.2673C6.63894 21.8668 7.00797 21.5742 7.44569 21.5742H8.9485C9.38633 21.5743 9.75536 21.8669 9.87086 22.2674Z" fill="#8C3F0A"/>
</g>
</g>
</g>
<g id="Group_146">
<g id="Group_147">
<g id="Group_148">
<path id="Vector_60" d="M7.92188 21.0586V21.7412C7.92188 21.794 7.93708 21.8458 7.96552 21.8902C8.07402 22.0594 8.32131 22.0594 8.42981 21.8902C8.45836 21.8458 8.47345 21.794 8.47345 21.7412V21.0586H7.92188Z" fill="#F2AD97"/>
</g>
</g>
<g id="Group_149">
<g id="Group_150">
<g id="Group_151">
<path id="Vector_61" d="M8.19744 21.1977C7.71739 21.1977 7.32812 20.8086 7.32812 20.3284V19.8771C7.32812 19.3971 7.71728 19.0078 8.19744 19.0078C8.67748 19.0078 9.06675 19.397 9.06675 19.8771V20.3284C9.06675 20.8086 8.67759 21.1977 8.19744 21.1977Z" fill="#FCC4AE"/>
</g>
</g>
<g id="Group_152">
<g id="Group_153">
<path id="Vector_62" d="M7.32687 20.3264V20.0547C7.17222 20.0547 7.04688 20.18 7.04688 20.3347C7.04688 20.4893 7.17222 20.6147 7.32687 20.6147C7.34317 20.6147 7.35903 20.613 7.37456 20.6103C7.34383 20.5214 7.32687 20.4259 7.32687 20.3264Z" fill="#FCC4AE"/>
</g>
</g>
<g id="Group_154">
<g id="Group_155">
<path id="Vector_63" d="M9.06331 20.0547V20.3264C9.06331 20.4259 9.04636 20.5214 9.01562 20.6104C9.03116 20.613 9.04702 20.6148 9.06331 20.6148C9.21797 20.6148 9.34331 20.4895 9.34331 20.3348C9.34331 20.1801 9.21797 20.0547 9.06331 20.0547Z" fill="#FCC4AE"/>
</g>
</g>
<g id="Group_156">
<g id="Group_157">
<path id="Vector_64" d="M7.88171 18.8336C7.88313 19.2952 7.62501 19.7125 7.23202 19.9264C7.1489 19.9717 7.04685 19.9065 7.05516 19.8122C7.08338 19.492 7.22579 19.1987 7.44946 18.9923C7.57032 18.8803 7.71491 18.794 7.8781 18.7422C7.8804 18.7724 7.88171 18.8028 7.88171 18.8336Z" fill="#414042"/>
</g>
</g>
<g id="Group_158">
<g id="Group_159">
<path id="Vector_65" d="M9.26389 19.85C8.53523 20.2261 7.61911 19.7968 7.44531 18.9921C7.56552 18.8807 7.70923 18.7948 7.87122 18.7428C8.54869 18.5228 9.22375 19.0384 9.32667 19.7275C9.33411 19.7774 9.30863 19.8269 9.26389 19.85Z" fill="#414042"/>
</g>
</g>
</g>
</g>
<g id="Group_160">
<g id="Group_161">
<g id="Group_162">
<g id="Group_163">
<path id="Vector_66" d="M8.81888 21.5732L8.29858 22.9848C8.26511 22.9862 8.23175 22.9872 8.19828 22.9872C8.16481 22.9872 8.13145 22.9862 8.09798 22.9848L7.57812 21.5732L7.92134 21.418V21.5669L8.19817 21.998L8.475 21.5669V21.418L8.81888 21.5732Z" fill="#939598"/>
</g>
</g>
<g id="Group_164">
<g id="Group_165">
<path id="Vector_67" d="M7.57812 21.5731L7.83713 22.2757C7.84763 22.3042 7.88427 22.3123 7.90581 22.2908L8.19828 21.9983L7.92156 21.567V21.418L7.57812 21.5731Z" fill="white"/>
</g>
</g>
<g id="Group_166">
<g id="Group_167">
<path id="Vector_68" d="M8.81569 21.5731L8.55647 22.2757C8.54597 22.3042 8.50933 22.3123 8.48778 22.2908L8.19531 21.9983L8.47203 21.567V21.418L8.81569 21.5731Z" fill="white"/>
</g>
</g>
<g id="Group_168">
<g id="Group_169">
<path id="Vector_69" d="M8.43195 22.2317L8.25936 22.4042C8.22677 22.4368 8.17394 22.4368 8.14134 22.4042L7.96875 22.2317L8.20041 22L8.43195 22.2317Z" fill="#E6E7E8"/>
</g>
</g>
<g id="Group_170">
<g id="Group_171">
<path id="Vector_70" d="M8.37031 22.7968L8.30108 22.9853C8.26761 22.9868 8.23425 22.9878 8.20078 22.9878C8.16731 22.9878 8.13395 22.9868 8.10048 22.9853L8.03125 22.7968L8.08233 22.3438L8.1415 22.4029C8.17442 22.4354 8.22692 22.4354 8.25984 22.4029L8.31902 22.3438L8.37031 22.7968Z" fill="#D1D3D4"/>
</g>
</g>
</g>
<g id="Group_172">
<g id="Group_173">
<path id="Vector_71" d="M8.0995 22.9858C8.0446 22.984 7.99067 22.9796 7.93719 22.9729L7.38003 22.3695C7.36428 22.3523 7.36527 22.3255 7.38342 22.3103L7.53042 22.1805C7.55766 22.1561 7.54333 22.1112 7.50746 22.1074L7.33421 22.0888C7.30752 22.086 7.29024 22.0588 7.29931 22.0329L7.46589 21.5742H7.57953L8.0995 22.9858Z" fill="#7C3108"/>
</g>
</g>
<g id="Group_174">
<g id="Group_175">
<path id="Vector_72" d="M9.06206 22.0888L8.88881 22.1074C8.85305 22.1112 8.83872 22.1561 8.86595 22.1805L9.01295 22.3103C9.03111 22.3256 9.03209 22.3523 9.01634 22.3695L8.45919 22.9729C8.4057 22.9796 8.35178 22.9838 8.29688 22.9858L8.81717 21.5742H8.93081L9.09695 22.0329C9.10592 22.0588 9.08875 22.086 9.06206 22.0888Z" fill="#7C3108"/>
</g>
</g>
</g>
</g>
</g>
</g>
<g id="Group_176">
<g id="Group_177">
<g id="Group_178">
<path id="Vector_73" d="M22.1677 22.9134C23.4003 22.5967 24.1427 21.3407 23.826 20.1082C23.5092 18.8757 22.2533 18.1332 21.0208 18.45C19.7882 18.7667 19.0458 20.0226 19.3625 21.2552C19.6793 22.4877 20.9352 23.2301 22.1677 22.9134Z" fill="#76A34F"/>
</g>
</g>
<g id="Group_179">
<g id="Group_180">
<g id="Group_181">
<g id="Group_182">
<g id="Group_183">
<path id="Vector_74" d="M23.2459 22.2674C23.1146 22.4063 22.9661 22.5291 22.8038 22.6317C22.4476 22.8574 22.0251 22.9882 21.5721 22.9882C20.9128 22.9882 20.3184 22.7113 19.8984 22.2673C20.0139 21.8668 20.383 21.5742 20.8207 21.5742H22.3235C22.7613 21.5743 23.1304 21.8669 23.2459 22.2674Z" fill="#8C3F0A"/>
</g>
</g>
</g>
<g id="Group_184">
<g id="Group_185">
<g id="Group_186">
<path id="Vector_75" d="M21.2969 21.0586V21.7412C21.2969 21.794 21.3121 21.8458 21.3405 21.8902C21.449 22.0594 21.6963 22.0594 21.8048 21.8902C21.8334 21.8458 21.8485 21.794 21.8485 21.7412V21.0586H21.2969Z" fill="#F2AD97"/>
</g>
</g>
<g id="Group_187">
<g id="Group_188">
<g id="Group_189">
<path id="Vector_76" d="M21.5724 21.1977C21.0924 21.1977 20.7031 20.8086 20.7031 20.3284V19.8771C20.7031 19.3971 21.0923 19.0078 21.5724 19.0078C22.0525 19.0078 22.4417 19.397 22.4417 19.8771V20.3284C22.4417 20.8086 22.0526 21.1977 21.5724 21.1977Z" fill="#FCC4AE"/>
</g>
</g>
<g id="Group_190">
<g id="Group_191">
<path id="Vector_77" d="M20.7019 20.3264V20.0547C20.5472 20.0547 20.4219 20.18 20.4219 20.3347C20.4219 20.4893 20.5472 20.6147 20.7019 20.6147C20.7182 20.6147 20.734 20.613 20.7496 20.6103C20.7188 20.5214 20.7019 20.4259 20.7019 20.3264Z" fill="#FCC4AE"/>
</g>
</g>
<g id="Group_192">
<g id="Group_193">
<path id="Vector_78" d="M22.4383 20.0547V20.3264C22.4383 20.4259 22.4214 20.5214 22.3906 20.6104C22.4062 20.613 22.422 20.6148 22.4383 20.6148C22.593 20.6148 22.7183 20.4895 22.7183 20.3348C22.7183 20.1801 22.593 20.0547 22.4383 20.0547Z" fill="#FCC4AE"/>
</g>
</g>
<g id="Group_194">
<g id="Group_195">
<path id="Vector_79" d="M21.2567 18.8336C21.2582 19.2952 21 19.7125 20.607 19.9264C20.5239 19.9717 20.4219 19.9065 20.4302 19.8122C20.4584 19.492 20.6008 19.1987 20.8245 18.9923C20.9453 18.8803 21.0899 18.794 21.2531 18.7422C21.2554 18.7724 21.2567 18.8028 21.2567 18.8336Z" fill="#414042"/>
</g>
</g>
<g id="Group_196">
<g id="Group_197">
<path id="Vector_80" d="M22.6389 19.85C21.9102 20.2261 20.9941 19.7968 20.8203 18.9921C20.9405 18.8807 21.0842 18.7948 21.2462 18.7428C21.9237 18.5228 22.5988 19.0384 22.7017 19.7275C22.7091 19.7774 22.6836 19.8269 22.6389 19.85Z" fill="#414042"/>
</g>
</g>
</g>
</g>
<g id="Group_198">
<g id="Group_199">
<g id="Group_200">
<g id="Group_201">
<path id="Vector_81" d="M22.1939 21.5732L21.6736 22.9848C21.6401 22.9862 21.6067 22.9872 21.5733 22.9872C21.5398 22.9872 21.5065 22.9862 21.473 22.9848L20.9531 21.5732L21.2963 21.418V21.5669L21.5732 21.998L21.85 21.5669V21.418L22.1939 21.5732Z" fill="#939598"/>
</g>
</g>
<g id="Group_202">
<g id="Group_203">
<path id="Vector_82" d="M20.9531 21.5731L21.2121 22.2757C21.2226 22.3042 21.2593 22.3123 21.2808 22.2908L21.5733 21.9983L21.2966 21.567V21.418L20.9531 21.5731Z" fill="white"/>
</g>
</g>
<g id="Group_204">
<g id="Group_205">
<path id="Vector_83" d="M22.1907 21.5731L21.9315 22.2757C21.921 22.3042 21.8843 22.3123 21.8628 22.2908L21.5703 21.9983L21.847 21.567V21.418L22.1907 21.5731Z" fill="white"/>
</g>
</g>
<g id="Group_206">
<g id="Group_207">
<path id="Vector_84" d="M21.807 22.2317L21.6344 22.4042C21.6018 22.4368 21.5489 22.4368 21.5163 22.4042L21.3438 22.2317L21.5754 22L21.807 22.2317Z" fill="#E6E7E8"/>
</g>
</g>
<g id="Group_208">
<g id="Group_209">
<path id="Vector_85" d="M21.7453 22.7968L21.6761 22.9853C21.6426 22.9868 21.6093 22.9878 21.5758 22.9878C21.5423 22.9878 21.509 22.9868 21.4755 22.9853L21.4062 22.7968L21.4573 22.3438L21.5165 22.4029C21.5494 22.4354 21.6019 22.4354 21.6348 22.4029L21.694 22.3438L21.7453 22.7968Z" fill="#D1D3D4"/>
</g>
</g>
</g>
<g id="Group_210">
<g id="Group_211">
<path id="Vector_86" d="M21.4745 22.9858C21.4196 22.984 21.3657 22.9796 21.3122 22.9729L20.755 22.3695C20.7393 22.3523 20.7403 22.3255 20.7584 22.3103L20.9054 22.1805C20.9327 22.1561 20.9183 22.1112 20.8825 22.1074L20.7092 22.0888C20.6825 22.086 20.6652 22.0588 20.6743 22.0329L20.8409 21.5742H20.9545L21.4745 22.9858Z" fill="#7C3108"/>
</g>
</g>
<g id="Group_212">
<g id="Group_213">
<path id="Vector_87" d="M22.4371 22.0888L22.2638 22.1074C22.228 22.1112 22.2137 22.1561 22.241 22.1805L22.388 22.3103C22.4061 22.3256 22.4071 22.3523 22.3913 22.3695L21.8342 22.9729C21.7807 22.9796 21.7268 22.9838 21.6719 22.9858L22.1922 21.5742H22.3058L22.472 22.0329C22.4809 22.0588 22.4638 22.086 22.4371 22.0888Z" fill="#7C3108"/>
</g>
</g>
</g>
</g>
</g>
</g>
</g>
</g>
</svg>
