<svg width="32" height="32" viewBox="0 0 32 32" fill="none" xmlns="http://www.w3.org/2000/svg">
<g clip-path="url(#clip0_740_66767)">
<path d="M28.6402 18.8103H3.35986V12.2154L16 7.81885L28.6402 12.2154V18.8103Z" fill="#52B788"/>
<path d="M16 18.8103H3.35986V12.2154L16 7.81885V18.8103Z" fill="#40916C"/>
<path d="M16.0004 0L17.5287 3.09685L20.9465 3.59311L18.4734 6.00409L19.0571 9.40814L16.0004 7.80064L12.9436 9.40814L13.5273 6.00409L11.0542 3.59311L14.472 3.09685L16.0004 0Z" fill="#FFEA00"/>
<path d="M25.8924 1.09912L26.7415 2.81929L28.6403 3.09517L27.2663 4.43448L27.5906 6.32556L25.8924 5.43251L24.1942 6.32556L24.5185 4.43448L23.1445 3.09517L25.0433 2.81929L25.8924 1.09912Z" fill="#FFEA00"/>
<path d="M2.81037 3.84692L3.65946 5.56709L5.55823 5.84297L4.1843 7.18228L4.50855 9.07337L2.81037 8.18031L1.11218 9.07337L1.43643 7.18228L0.0625 5.84297L1.96128 5.56709L2.81037 3.84692Z" fill="#FFEA00"/>
<path d="M7.66265 0.124756L8.34192 1.50144L9.86094 1.72182L8.7618 2.79348L9.02119 4.30646L7.66265 3.59201L6.3041 4.30646L6.5635 2.79348L5.46436 1.72182L6.98338 1.50144L7.66265 0.124756Z" fill="#FFEA00"/>
<path d="M16.0004 0L15.7481 2.40988C15.6205 3.61722 16.4958 4.69947 17.7031 4.82704C18.1198 4.87107 18.5403 4.79516 18.9153 4.60817L20.9465 3.59311L18.4734 6.00519L19.0571 9.40924L16.0004 7.80064L12.9436 9.40814L13.5273 6.00519L11.0542 3.59311L14.472 3.09849L16.0004 0Z" fill="#FFD000"/>
<path d="M25.8924 1.09912L25.7825 2.6132C25.7377 3.21862 26.1922 3.74566 26.7976 3.79038C26.9824 3.80405 27.1677 3.77073 27.3361 3.69366L28.6403 3.09242L27.2663 4.43173L27.5906 6.32281L25.8924 5.43251L24.1942 6.32556L24.5185 4.43448L23.1445 3.09242L25.0433 2.81764L25.8924 1.09912Z" fill="#FFD000"/>
<path d="M2.81037 3.84692L2.70045 5.59786C2.66191 6.2037 3.12177 6.72607 3.72754 6.76461C3.9611 6.77945 4.1933 6.71941 4.39039 6.59314L5.55823 5.84297L4.1843 7.18228L4.50855 9.07337L2.81037 8.18031L1.11218 9.07337L1.43643 7.18228L0.0625 5.84297L1.96128 5.56819L2.81037 3.84692Z" fill="#FFD000"/>
<path d="M7.66265 0.124756L7.54229 0.989235C7.45999 1.59067 7.8809 2.14492 8.48234 2.22722C8.71487 2.25902 8.95147 2.21561 9.15749 2.10322L9.86094 1.71852L8.7618 2.79019L9.02119 4.30316L7.66265 3.58872L6.3041 4.30316L6.5635 2.79019L5.46436 1.71852L6.98338 1.49869L7.66265 0.124756Z" fill="#FFD000"/>
<path d="M16.0003 17.1614C15.6968 17.1611 15.4509 16.9149 15.4512 16.6114C15.4512 16.4954 15.4881 16.3825 15.5562 16.2887L16.0063 15.6699C16.9174 14.41 16.9521 12.7172 16.0931 11.4211C15.9247 11.1686 15.9928 10.8273 16.2454 10.6589C16.4979 10.4904 16.8392 10.5586 17.0076 10.8111C18.1211 12.4899 18.0773 14.6831 16.8977 16.3162L16.4482 16.935C16.3441 17.0782 16.1773 17.1625 16.0003 17.1614Z" fill="#FFEA00"/>
<path d="M11.6036 13.3144C11.4725 13.3143 11.3459 13.2673 11.2464 13.182L10.3204 12.3884C8.34321 10.6959 7.20566 8.22302 7.20703 5.62037C7.20703 5.31687 7.4531 5.0708 7.75661 5.0708C8.06011 5.0708 8.30618 5.31687 8.30618 5.62037C8.30419 7.90275 9.30146 10.0716 11.0354 11.5558L11.9614 12.3499C12.1906 12.5489 12.215 12.896 12.0159 13.1252C11.9122 13.2447 11.7619 13.3136 11.6036 13.3144Z" fill="#FFEA00"/>
<path d="M20.3968 13.3145C20.0933 13.3139 19.8476 13.0675 19.8481 12.764C19.8486 12.5069 20.0272 12.2845 20.278 12.2285L21.4322 11.9724C23.488 11.5084 25.0457 9.82614 25.3506 7.74071C25.3937 7.44023 25.6722 7.2316 25.9727 7.27468C26.2732 7.31775 26.4818 7.59631 26.4388 7.89679C26.0674 10.434 24.172 12.4806 21.6707 13.0452L20.5166 13.3013C20.4772 13.31 20.4371 13.3144 20.3968 13.3145Z" fill="#FFEA00"/>
<path d="M19.2977 12.2155C19.2014 12.2161 19.1065 12.1911 19.023 12.1429C18.7596 11.9923 18.6681 11.6568 18.8185 11.3933L21.0168 7.5463C21.1736 7.28642 21.5114 7.20281 21.7712 7.35958C22.0225 7.51112 22.1103 7.83331 21.9709 8.09147L19.7726 11.9385C19.6752 12.1091 19.4941 12.2146 19.2977 12.2155Z" fill="#FFEA00"/>
<path d="M22.595 6.16995C22.8985 6.16995 23.1446 5.92389 23.1446 5.62037C23.1446 5.31685 22.8985 5.0708 22.595 5.0708C22.2915 5.0708 22.0454 5.31685 22.0454 5.62037C22.0454 5.92389 22.2915 6.16995 22.595 6.16995Z" fill="#FFEA00"/>
<path d="M12.1531 1.77346C12.4566 1.77346 12.7027 1.52741 12.7027 1.22389C12.7027 0.920369 12.4566 0.674316 12.1531 0.674316C11.8496 0.674316 11.6035 0.920369 11.6035 1.22389C11.6035 1.52741 11.8496 1.77346 12.1531 1.77346Z" fill="#FFEA00"/>
<path d="M19.8469 1.77346C20.1505 1.77346 20.3965 1.52741 20.3965 1.22389C20.3965 0.920369 20.1505 0.674316 19.8469 0.674316C19.5434 0.674316 19.2974 0.920369 19.2974 1.22389C19.2974 1.52741 19.5434 1.77346 19.8469 1.77346Z" fill="#FFEA00"/>
<path d="M25.3429 12.765C25.0394 12.7647 24.7936 12.5183 24.7939 12.2148C24.7941 12.0818 24.8425 11.9534 24.9302 11.8533L28.7772 7.45669C28.9901 7.24043 29.3381 7.23775 29.5544 7.45071C29.7534 7.64677 29.7738 7.96099 29.6015 8.18102L25.7545 12.5776C25.6506 12.6962 25.5006 12.7645 25.3429 12.765Z" fill="#FFEA00"/>
<path d="M30.8386 6.71951C31.1422 6.71951 31.3882 6.47346 31.3882 6.16993C31.3882 5.86641 31.1422 5.62036 30.8386 5.62036C30.5351 5.62036 30.2891 5.86641 30.2891 6.16993C30.2891 6.47346 30.5351 6.71951 30.8386 6.71951Z" fill="#FFEA00"/>
<path d="M10.5042 7.26931C10.8077 7.26931 11.0537 7.02326 11.0537 6.71974C11.0537 6.41622 10.8077 6.17017 10.5042 6.17017C10.2006 6.17017 9.95459 6.41622 9.95459 6.71974C9.95459 7.02326 10.2006 7.26931 10.5042 7.26931Z" fill="#FFEA00"/>
<path d="M1.71119 1.77346C2.01472 1.77346 2.26077 1.52741 2.26077 1.22389C2.26077 0.920369 2.01472 0.674316 1.71119 0.674316C1.40767 0.674316 1.16162 0.920369 1.16162 1.22389C1.16162 1.52741 1.40767 1.77346 1.71119 1.77346Z" fill="#FFEA00"/>
<path d="M7.75629 12.2154C7.56318 12.2156 7.38422 12.1144 7.28475 11.9489L5.63603 9.20103C5.47501 8.94376 5.55305 8.60461 5.81038 8.44365C6.06765 8.28262 6.40681 8.36066 6.56776 8.618C6.57127 8.62363 6.5747 8.62927 6.578 8.63504L8.22672 11.3829C8.383 11.6431 8.29885 11.9807 8.03863 12.1371C7.95338 12.1882 7.85576 12.2153 7.75629 12.2154Z" fill="#FFEA00"/>
<path d="M3.35986 27.6034L16 32V16.6119L3.35986 12.2153V27.6034Z" fill="#40916C"/>
<path d="M28.6402 27.6034L16 32V16.6119L28.6402 12.2153V27.6034Z" fill="#95D5B2"/>
<path d="M28.6402 20.2996L20.3966 23.2068C20.3984 25.3923 22.168 27.1643 24.3535 27.1692C24.7811 27.168 25.2058 27.0994 25.612 26.9659L28.6402 25.9547V27.6034L16 32V16.6119L28.6402 12.2153V20.2996Z" fill="#52B788"/>
<path d="M31.9376 17.1615L19.2974 22.1077L16 16.6119L28.6402 12.2153L31.9376 17.1615Z" fill="#D8F3DC"/>
<path d="M0.0625 17.1615L12.7027 22.1077L16.0001 16.6119L3.35994 12.2153L0.0625 17.1615Z" fill="#D8F3DC"/>
<path d="M16 28.7026L3.35986 24.306V21.5581L16 25.9547V28.7026Z" fill="#C62828"/>
<path d="M16 28.7026L28.6402 24.306V21.5581L16 25.9547V28.7026Z" fill="#EF5350"/>
<path d="M22.2212 26.5373L16 28.7026V25.9547L20.5724 24.3665C20.8437 25.2645 21.4289 26.035 22.2212 26.5373Z" fill="#E53935"/>
<path d="M31.9376 17.1615L19.2974 22.1077L16 16.6119L18.2752 15.8205C19.528 17.8582 22.0594 18.7074 24.2876 17.8375L30.7121 15.3259L31.9376 17.1615Z" fill="#95D5B2"/>
<path d="M13.7579 20.349L12.7027 22.1077L0.0625 17.1615L3.35994 12.2153L5.0801 12.8144C4.30514 14.7948 5.2818 17.0286 7.26191 17.8045L13.7579 20.349Z" fill="#95D5B2"/>
<path d="M14.9012 14.4137C14.5977 14.4137 14.3516 14.1677 14.3516 13.8642V13.7702C14.3542 12.9201 14.0163 12.1043 13.4135 11.5048C13.2027 11.2865 13.2087 10.9386 13.4271 10.7277C13.64 10.5221 13.9777 10.5221 14.1906 10.7277C15.0001 11.5329 15.4539 12.6284 15.4508 13.7702V13.8642C15.4508 14.1677 15.2047 14.4137 14.9012 14.4137Z" fill="#FFEA00"/>
</g>
<defs>
<clipPath id="clip0_740_66767">
<rect width="32" height="32" fill="white"/>
</clipPath>
</defs>
</svg>
