<svg width="32" height="32" viewBox="0 0 32 32" fill="none" xmlns="http://www.w3.org/2000/svg">
<g clip-path="url(#clip0_740_66764)">
<path d="M12.4814 5.33911C12.4814 5.33911 10.7244 14.3184 1.05127 20.9444L5.07417 26.8174C14.7473 20.1913 23.7549 21.797 23.7549 21.797L12.4814 5.33911Z" fill="url(#paint0_linear_740_66764)"/>
<path d="M24.4357 21.7459C23.2546 22.555 19.6867 19.4001 16.4668 14.6994C13.2468 9.99866 11.5939 5.53209 12.7751 4.72299C13.9563 3.9139 17.5241 7.06878 20.7441 11.7695C23.964 16.4703 25.6168 20.9369 24.4357 21.7459Z" fill="url(#paint1_linear_740_66764)"/>
<path d="M30.1866 5.30494C30.4444 5.68141 30.3483 6.19561 29.9718 6.45349L27.5003 8.14654C27.1238 8.40443 26.6096 8.3083 26.3517 7.93183C26.0938 7.55536 26.1899 7.04116 26.5664 6.78328L29.038 5.09023C29.4145 4.83235 29.9287 4.92847 30.1866 5.30494Z" fill="url(#paint2_linear_740_66764)"/>
<path d="M27.6025 20.409C27.226 20.6669 26.7118 20.5707 26.4539 20.1943L24.7609 17.7227C24.503 17.3462 24.5991 16.832 24.9756 16.5741C25.3521 16.3162 25.8663 16.4124 26.1241 16.7888L27.8172 19.2604C28.0751 19.6369 27.9789 20.1511 27.6025 20.409Z" fill="url(#paint3_linear_740_66764)"/>
<path d="M17.7895 6.08304C17.413 6.34093 16.8988 6.2448 16.6409 5.86833L14.9479 3.39674C14.69 3.02027 14.7861 2.50607 15.1626 2.24819C15.5391 1.99031 16.0533 2.08643 16.3112 2.4629L18.0042 4.93449C18.2621 5.31096 18.166 5.82516 17.7895 6.08304Z" fill="url(#paint4_linear_740_66764)"/>
<path d="M31.9861 13.3151C31.9023 13.7636 31.4707 14.0592 31.0222 13.9754L28.0774 13.4249C27.6289 13.341 27.3332 12.9094 27.417 12.4609C27.5009 12.0124 27.9325 11.7168 28.381 11.8006L31.3258 12.3511C31.7744 12.4349 32.07 12.8665 31.9861 13.3151Z" fill="url(#paint5_linear_740_66764)"/>
<path d="M22.5134 5.3023C22.0649 5.21847 21.7692 4.78685 21.8531 4.33835L22.4036 1.39353C22.4874 0.945031 22.9191 0.649376 23.3676 0.733204C23.8161 0.817031 24.1117 1.24865 24.0279 1.69716L23.4774 4.64197C23.3935 5.09054 22.9619 5.38619 22.5134 5.3023Z" fill="url(#paint6_linear_740_66764)"/>
<path d="M4.45331 18.249C3.44512 19.1709 2.31652 20.078 1.05127 20.9447L5.07417 26.8176C12.9621 21.4144 20.4067 21.4849 22.8861 21.695L4.45331 18.249Z" fill="url(#paint7_linear_740_66764)"/>
<path d="M14.8659 15.7923C13.1364 13.2673 11.8584 10.8095 11.2297 8.94995C10.8354 9.83246 10.3265 10.8345 9.67773 11.9051C10.3835 13.501 11.4276 15.36 12.7272 17.2573C14.0268 19.1546 15.3831 20.7998 16.6163 22.0344C17.849 21.8163 18.9672 21.7036 19.9325 21.6548C18.4257 20.3969 16.5956 18.3173 14.8659 15.7923Z" fill="url(#paint8_linear_740_66764)"/>
<path d="M3.06107 26.9393C4.75138 26.9393 6.12165 25.569 6.12165 23.8787C6.12165 22.1884 4.75138 20.8181 3.06107 20.8181C1.37076 20.8181 0.000488281 22.1884 0.000488281 23.8787C0.000488281 25.569 1.37076 26.9393 3.06107 26.9393Z" fill="url(#paint9_linear_740_66764)"/>
<path d="M11.1711 31.263C8.51141 30.87 6.33629 29.3878 4.99712 27.0561C4.4269 26.0626 4.97272 24.5998 6.11367 24.0617C6.12572 24.0563 6.13727 24.0507 6.14956 24.0449C6.97617 23.6553 7.85328 23.8903 8.26696 24.6096C9.13993 26.127 10.5213 27.0676 12.2516 27.3248C13.0729 27.447 13.6125 28.1774 13.5523 29.0892C13.5514 29.1027 13.5504 29.1156 13.5498 29.1287C13.4665 30.3875 12.3047 31.4306 11.1711 31.263Z" fill="url(#paint10_linear_740_66764)"/>
<path d="M10.9409 30.7904C8.76319 30.4686 6.9821 29.2549 5.88551 27.3456C5.41856 26.532 5.86549 25.3342 6.79977 24.8937C6.80962 24.8893 6.81909 24.8847 6.82919 24.88C7.50603 24.561 8.22427 24.7534 8.56297 25.3424C9.27776 26.5849 10.4089 27.3551 11.8258 27.5657C12.4983 27.6657 12.9401 28.2638 12.8907 29.0104C12.8901 29.0215 12.8892 29.0321 12.8887 29.0428C12.8205 30.0734 11.8693 30.9276 10.9409 30.7904Z" fill="url(#paint11_linear_740_66764)"/>
<path d="M11.1594 30.4055C9.3119 30.1953 7.66083 29.2249 6.47306 27.6512C5.96721 26.9807 6.16009 25.9621 6.86735 25.5663C6.87482 25.5623 6.88197 25.5582 6.88963 25.5539C7.40207 25.2672 8.19918 25.289 8.56599 25.7745C9.33995 26.7986 10.2132 27.5343 11.4154 27.6721C11.986 27.7376 12.4393 28.2278 12.5086 28.8564C12.5097 28.8657 12.5105 28.8746 12.5117 28.8836C12.6073 29.7514 11.9469 30.4952 11.1594 30.4055Z" fill="url(#paint12_linear_740_66764)"/>
<path d="M8.267 24.6096C7.85332 23.8903 6.97621 23.6553 6.1496 24.0449C6.1373 24.0507 6.12569 24.0563 6.11371 24.0617C4.97269 24.5997 4.42687 26.0626 4.99716 27.0561C5.12353 27.2762 5.25743 27.4886 5.39842 27.6934L13.5419 29.2157C13.5449 29.1868 13.548 29.1579 13.5499 29.1288C13.5505 29.1157 13.5515 29.1028 13.5524 29.0892C13.6126 28.1774 13.073 27.4471 12.2517 27.3249C10.5213 27.0677 9.13997 26.1271 8.267 24.6096Z" fill="url(#paint13_linear_740_66764)"/>
<path d="M6.50011 21.5231C7.18504 22.523 7.88578 23.4529 8.57566 24.2894C8.99291 24.7954 8.886 25.5499 8.34494 25.9205L6.04157 27.4983C5.56728 27.8232 4.92308 27.736 4.55464 27.2947C3.82178 26.4171 3.07498 25.4322 2.34632 24.3684C1.61767 23.3047 0.969132 22.2525 0.415469 21.2521C0.137069 20.7491 0.288536 20.1169 0.762826 19.7921L3.0662 18.2143C3.60725 17.8436 4.3494 18.0165 4.67047 18.5884C5.20123 19.5339 5.81519 20.5232 6.50011 21.5231Z" fill="url(#paint14_linear_740_66764)"/>
<path d="M6.49998 21.5231C5.81506 20.5231 5.2011 19.5338 4.67027 18.5883C4.37524 18.0628 3.72502 17.8756 3.20166 18.136C3.42434 18.2279 3.62004 18.3914 3.74817 18.6196C4.27899 19.5651 4.89289 20.5544 5.57788 21.5544C6.26281 22.5543 6.96354 23.4842 7.65342 24.3207C8.07068 24.8267 7.96376 25.5812 7.42271 25.9518L5.11934 27.5296C5.0751 27.5599 5.02899 27.5854 4.98212 27.6086C5.32088 27.7489 5.72012 27.7185 6.0415 27.4983L8.34488 25.9205C8.88593 25.5499 8.99285 24.7955 8.57559 24.2895C7.88564 23.4529 7.18491 22.523 6.49998 21.5231Z" fill="url(#paint15_linear_740_66764)"/>
</g>
<defs>
<linearGradient id="paint0_linear_740_66764" x1="7.76763" y1="14.6346" x2="13.5158" y2="23.0279" gradientUnits="userSpaceOnUse">
<stop stop-color="#FFD945"/>
<stop offset="0.3043" stop-color="#FFCD3E"/>
<stop offset="0.8558" stop-color="#FFAD2B"/>
<stop offset="1" stop-color="#FFA325"/>
</linearGradient>
<linearGradient id="paint1_linear_740_66764" x1="20.617" y1="11.8532" x2="14.8233" y2="15.821" gradientUnits="userSpaceOnUse">
<stop stop-color="#FFD945"/>
<stop offset="0.3043" stop-color="#FFCD3E"/>
<stop offset="0.8558" stop-color="#FFAD2B"/>
<stop offset="1" stop-color="#FFA325"/>
</linearGradient>
<linearGradient id="paint2_linear_740_66764" x1="28.1752" y1="6.45363" x2="29.1358" y2="7.8562" gradientUnits="userSpaceOnUse">
<stop stop-color="#FFD945"/>
<stop offset="0.3043" stop-color="#FFCD3E"/>
<stop offset="0.8558" stop-color="#FFAD2B"/>
<stop offset="1" stop-color="#FFA325"/>
</linearGradient>
<linearGradient id="paint3_linear_740_66764" x1="26.4849" y1="18.3975" x2="25.0824" y2="19.358" gradientUnits="userSpaceOnUse">
<stop stop-color="#FF819C"/>
<stop offset="0.2594" stop-color="#FF7E9A"/>
<stop offset="0.4757" stop-color="#FE7396"/>
<stop offset="0.6765" stop-color="#FC628E"/>
<stop offset="0.8668" stop-color="#FA4A83"/>
<stop offset="1" stop-color="#F83479"/>
</linearGradient>
<linearGradient id="paint4_linear_740_66764" x1="16.6741" y1="4.07166" x2="15.2716" y2="5.03217" gradientUnits="userSpaceOnUse">
<stop stop-color="#9B62CD"/>
<stop offset="0.3003" stop-color="#985DCB"/>
<stop offset="0.6716" stop-color="#8F4EC7"/>
<stop offset="1" stop-color="#833AC1"/>
</linearGradient>
<linearGradient id="paint5_linear_740_66764" x1="29.7701" y1="12.6516" x2="29.4573" y2="14.3228" gradientUnits="userSpaceOnUse">
<stop stop-color="#92F37F"/>
<stop offset="1" stop-color="#4AB272"/>
</linearGradient>
<linearGradient id="paint6_linear_740_66764" x1="23.2153" y1="3.0372" x2="21.5441" y2="2.72439" gradientUnits="userSpaceOnUse">
<stop stop-color="#00ADFB"/>
<stop offset="1" stop-color="#3F3CED"/>
</linearGradient>
<linearGradient id="paint7_linear_740_66764" x1="11.3835" y1="20.9683" x2="2.01008" y2="23.1854" gradientUnits="userSpaceOnUse">
<stop stop-color="#F35227" stop-opacity="0"/>
<stop offset="1" stop-color="#F35227"/>
</linearGradient>
<linearGradient id="paint8_linear_740_66764" x1="10.0222" y1="10.257" x2="21.8079" y2="27.4663" gradientUnits="userSpaceOnUse">
<stop stop-color="#FF7044"/>
<stop offset="1" stop-color="#F82814"/>
</linearGradient>
<linearGradient id="paint9_linear_740_66764" x1="1.41575" y1="21.4851" x2="6.10035" y2="28.3254" gradientUnits="userSpaceOnUse">
<stop stop-color="#8A7889"/>
<stop offset="1" stop-color="#6E566E"/>
</linearGradient>
<linearGradient id="paint10_linear_740_66764" x1="5.6971" y1="27.9949" x2="11.6872" y2="27.2659" gradientUnits="userSpaceOnUse">
<stop stop-color="#8A7889"/>
<stop offset="1" stop-color="#6E566E"/>
</linearGradient>
<linearGradient id="paint11_linear_740_66764" x1="10.6326" y1="26.8741" x2="6.5388" y2="29.6205" gradientUnits="userSpaceOnUse">
<stop stop-color="#8A7889"/>
<stop offset="1" stop-color="#6E566E"/>
</linearGradient>
<linearGradient id="paint12_linear_740_66764" x1="7.06552" y1="28.415" x2="11.0368" y2="27.4404" gradientUnits="userSpaceOnUse">
<stop stop-color="#8A7889"/>
<stop offset="1" stop-color="#6E566E"/>
</linearGradient>
<linearGradient id="paint13_linear_740_66764" x1="10.3059" y1="28.1535" x2="7.15163" y2="26.24" gradientUnits="userSpaceOnUse">
<stop stop-color="#6E566E" stop-opacity="0"/>
<stop offset="1" stop-color="#6E566E"/>
</linearGradient>
<linearGradient id="paint14_linear_740_66764" x1="4.68151" y1="23.1961" x2="6.26699" y2="25.5112" gradientUnits="userSpaceOnUse">
<stop stop-color="#9B62CD"/>
<stop offset="0.3003" stop-color="#985DCB"/>
<stop offset="0.6716" stop-color="#8F4EC7"/>
<stop offset="1" stop-color="#833AC1"/>
</linearGradient>
<linearGradient id="paint15_linear_740_66764" x1="2.93285" y1="22.4805" x2="10.5408" y2="24.2599" gradientUnits="userSpaceOnUse">
<stop stop-color="#833AC1" stop-opacity="0"/>
<stop offset="1" stop-color="#6E566E"/>
</linearGradient>
<clipPath id="clip0_740_66764">
<rect width="32" height="32" fill="white"/>
</clipPath>
</defs>
</svg>
